<svg width="77" height="64" viewBox="0 0 77 64" fill="none" xmlns="http://www.w3.org/2000/svg">
<path d="M16.2246 20H38.2246" stroke="#7B4AE2" stroke-linecap="round" stroke-linejoin="round"/>
<path d="M50.2246 20H72.2246" stroke="#7B4AE2" stroke-linecap="round" stroke-linejoin="round"/>
<path d="M44.2246 26C47.5383 26 50.2246 23.3137 50.2246 20C50.2246 16.6863 47.5383 14 44.2246 14C40.9109 14 38.2246 16.6863 38.2246 20C38.2246 23.3137 40.9109 26 44.2246 26Z" stroke="#7B4AE2" stroke-linecap="round" stroke-linejoin="round"/>
<path d="M22.2246 50C25.5383 50 28.2246 47.3137 28.2246 44C28.2246 40.6863 25.5383 38 22.2246 38C18.9109 38 16.2246 40.6863 16.2246 44C16.2246 47.3137 18.9109 50 22.2246 50Z" stroke="#7B4AE2" stroke-linecap="round" stroke-linejoin="round"/>
<path d="M66.2246 50C69.5383 50 72.2246 47.3137 72.2246 44C72.2246 40.6863 69.5383 38 66.2246 38C62.9109 38 60.2246 40.6863 60.2246 44C60.2246 47.3137 62.9109 50 66.2246 50Z" stroke="#7B4AE2" stroke-linecap="round" stroke-linejoin="round"/>
<path d="M50.1746 20.825C54.134 21.9365 57.7031 24.1344 60.4779 27.1698C63.2526 30.2052 65.122 33.9569 65.8746 38" stroke="#7B4AE2" stroke-linecap="round" stroke-linejoin="round"/>
<path d="M22.5747 38C23.3272 33.9569 25.1967 30.2052 27.9714 27.1698C30.7461 24.1344 34.3153 21.9365 38.2747 20.825" stroke="#7B4AE2" stroke-linecap="round" stroke-linejoin="round"/>
<g filter="url(#filter0_d_2334_306)">
<circle cx="24.2246" cy="34" r="20" fill="#7B4AE2" fill-opacity="0.2" shape-rendering="crispEdges"/>
</g>
<defs>
<filter id="filter0_d_2334_306" x="0.224609" y="14" width="48" height="48" filterUnits="userSpaceOnUse" color-interpolation-filters="sRGB">
<feFlood flood-opacity="0" result="BackgroundImageFix"/>
<feColorMatrix in="SourceAlpha" type="matrix" values="0 0 0 0 0 0 0 0 0 0 0 0 0 0 0 0 0 0 127 0" result="hardAlpha"/>
<feOffset dy="4"/>
<feGaussianBlur stdDeviation="2"/>
<feComposite in2="hardAlpha" operator="out"/>
<feColorMatrix type="matrix" values="0 0 0 0 0 0 0 0 0 0 0 0 0 0 0 0 0 0 0.25 0"/>
<feBlend mode="normal" in2="BackgroundImageFix" result="effect1_dropShadow_2334_306"/>
<feBlend mode="normal" in="SourceGraphic" in2="effect1_dropShadow_2334_306" result="shape"/>
</filter>
</defs>
</svg>
